<svg xmlns="http://www.w3.org/2000/svg" xmlns:xlink="http://www.w3.org/1999/xlink" xmlns:inkscape="http://www.inkscape.org/namespaces/inkscape" version="1.1" width="315.97" height="234.54" viewBox="0 0 315.97 234.54">
<path transform="matrix(1,0,0,-1,152.551,22.815999)" d="M29.8883 12.45346H-29.8883C-32.63948 12.45346-34.86969 10.22325-34.86969 7.47208V-7.47208C-34.86969-10.22325-32.63948-12.45346-29.8883-12.45346H29.8883C32.63948-12.45346 34.86969-10.22325 34.86969-7.47208V7.47208C34.86969 10.22325 32.63948 12.45346 29.8883 12.45346ZM-34.86969-12.45346" fill="#fff1ec"/>
<path transform="matrix(1,0,0,-1,152.551,22.815999)" stroke-width=".79701" stroke-linecap="butt" stroke-miterlimit="10" stroke-linejoin="miter" fill="none" stroke="#ff8d69" d="M29.8883 12.45346H-29.8883C-32.63948 12.45346-34.86969 10.22325-34.86969 7.47208V-7.47208C-34.86969-10.22325-32.63948-12.45346-29.8883-12.45346H29.8883C32.63948-12.45346 34.86969-10.22325 34.86969-7.47208V7.47208C34.86969 10.22325 32.63948 12.45346 29.8883 12.45346ZM-34.86969-12.45346"/>
<text fill="#212121" xml:space="preserve" transform="matrix(1 0 -0 1 42.024995 75.113)" font-size="8.9664" font-family="LMSans9"><tspan y="-49.186" x="80.551 86.441928 88.638698 93.24742 98.00858 102.769748 105.23999 107.71023 111.88857 115.03578 122.19993 128.86197 135.38054">CloudflareDNS</tspan></text>
<text fill="#4c4d4c" xml:space="preserve" transform="matrix(1 0 -0 1 -31.70301 74.243999)" font-size="8.9664" font-family="LMSans9"><tspan y="-49.186" x="80.551 86.89024 90.423007 94.520648 100.74333 106.71495 110.81259 115.57375 120.334918 124.432559 127.96532">UserRequest</tspan></text>
<path transform="matrix(1,0,0,-1,152.551,22.815999)" d="M-54.82147-47.26656H-137.21054C-139.96172-47.26656-142.19193-49.49677-142.19193-52.24794V-67.1921C-142.19193-69.94328-139.96172-72.17348-137.21054-72.17348H-54.82147C-52.0703-72.17348-49.84009-69.94328-49.84009-67.1921V-52.24794C-49.84009-49.49677-52.0703-47.26656-54.82147-47.26656ZM-142.19193-72.17348" fill="#ecf6fe"/>
<path transform="matrix(1,0,0,-1,152.551,22.815999)" stroke-width=".79701" stroke-linecap="butt" stroke-dasharray="2.98883,2.98883" stroke-miterlimit="10" stroke-linejoin="miter" fill="none" stroke="#68b7f7" d="M-54.82147-47.26656H-137.21054C-139.96172-47.26656-142.19193-49.49677-142.19193-52.24794V-67.1921C-142.19193-69.94328-139.96172-72.17348-137.21054-72.17348H-54.82147C-52.0703-72.17348-49.84009-69.94328-49.84009-67.1921V-52.24794C-49.84009-49.49677-52.0703-47.26656-54.82147-47.26656ZM-142.19193-72.17348"/>
<text fill="#212121" xml:space="preserve" transform="matrix(1 0 -0 1 -66.87101 133.959)" font-size="8.9664" font-family="LMSans9"><tspan y="-49.186" x="80.551 86.692989 88.889759 92.21629 98.73486 103.496028 111.332668 116.97253 121.40193 126.01066 130.1083 136.70758 143.22615 147.83489 151.36765 154.69419 156.89095 161.6521">GitHubPagesHosting</tspan></text>
<path transform="matrix(1,0,0,-1,152.551,22.815999)" d="M148.07791-47.26656H54.82147C52.0703-47.26656 49.84009-49.49677 49.84009-52.24794V-67.1921C49.84009-69.94328 52.0703-72.17348 54.82147-72.17348H148.07791C150.8291-72.17348 153.0593-69.94328 153.0593-67.1921V-52.24794C153.0593-49.49677 150.8291-47.26656 148.07791-47.26656ZM49.84009-72.17348" fill="#ecf6fe"/>
<path transform="matrix(1,0,0,-1,152.551,22.815999)" stroke-width=".79701" stroke-linecap="butt" stroke-dasharray="2.98883,2.98883" stroke-miterlimit="10" stroke-linejoin="miter" fill="none" stroke="#68b7f7" d="M148.07791-47.26656H54.82147C52.0703-47.26656 49.84009-49.49677 49.84009-52.24794V-67.1921C49.84009-69.94328 52.0703-72.17348 54.82147-72.17348H148.07791C150.8291-72.17348 153.0593-69.94328 153.0593-67.1921V-52.24794C153.0593-49.49677 150.8291-47.26656 148.07791-47.26656ZM49.84009-72.17348"/>
<text fill="#212121" xml:space="preserve" transform="matrix(1 0 -0 1 125.160999 133.959)" font-size="8.9664" font-family="LMSans9"><tspan y="-49.186" x="80.551 86.441928 88.638698 93.24742 98.00858 102.769748 105.23999 107.71023 111.88857 115.03578 122.19993 127.83979 132.2692 136.87793 140.97557 147.57485 154.09342 158.70215 162.23491 165.56145 167.75821 172.51937">CloudflarePagesHosting</tspan></text>
<text fill="#ff7043" xml:space="preserve" transform="matrix(1 0 -0 1 -40.918008 109.582)" font-size="8.9664" font-family="LMSans10" font-weight="bold"><tspan y="-49.186" x="80.551 85.581157 90.28851 95.22003 97.51543 100.25915 105.2893 109.87113">naol.dev</tspan></text>
<text fill="#ff7043" xml:space="preserve" transform="matrix(1 0 -0 1 146.582 107.834)" font-size="8.9664" font-family="LMSans10" font-weight="bold"><tspan y="-49.186" x="80.551 85.581157 87.87655 92.80807 97.739589 100.48331 105.51346 110.22082 115.152339 117.44773 120.19145 125.2216 129.80344">blog.naol.dev</tspan></text>
<path transform="matrix(1,0,0,-1,152.551,22.815999)" d="M-66.1277-115.4907H-125.90431C-128.65549-115.4907-130.8857-117.72092-130.8857-120.47209V-135.41625C-130.8857-138.16744-128.65549-140.39763-125.90431-140.39763H-66.1277C-63.37653-140.39763-61.14632-138.16744-61.14632-135.41625V-120.47209C-61.14632-117.72092-63.37653-115.4907-66.1277-115.4907ZM-130.8857-140.39763" fill="#edf7ee"/>
<path transform="matrix(1,0,0,-1,152.551,22.815999)" stroke-width=".79701" stroke-linecap="butt" stroke-miterlimit="10" stroke-linejoin="miter" fill="none" stroke="#70bf73" d="M-66.1277-115.4907H-125.90431C-128.65549-115.4907-130.8857-117.72092-130.8857-120.47209V-135.41625C-130.8857-138.16744-128.65549-140.39763-125.90431-140.39763H-66.1277C-63.37653-140.39763-61.14632-138.16744-61.14632-135.41625V-120.47209C-61.14632-117.72092-63.37653-115.4907-66.1277-115.4907ZM-130.8857-140.39763"/>
<text fill="#212121" xml:space="preserve" transform="matrix(1 0 -0 1 -53.61901 203.058)" font-size="8.9664" font-family="LMSans9"><tspan y="-49.186" x="80.551 86.692989 88.889759 92.21629 98.73486 103.496028 111.332668 117.24152 121.33917 124.66571 126.86248 131.4712 136.23236">GitHubActions</tspan></text>
<path transform="matrix(1,0,0,-1,152.551,22.815999)" d="M131.76338-115.4907H71.136C68.38483-115.4907 66.15462-117.72092 66.15462-120.47209V-135.41625C66.15462-138.16744 68.38483-140.39763 71.136-140.39763H131.76338C134.51456-140.39763 136.74477-138.16744 136.74477-135.41625V-120.47209C136.74477-117.72092 134.51456-115.4907 131.76338-115.4907ZM66.15462-140.39763" fill="#edf7ee"/>
<path transform="matrix(1,0,0,-1,152.551,22.815999)" stroke-width=".79701" stroke-linecap="butt" stroke-miterlimit="10" stroke-linejoin="miter" fill="none" stroke="#70bf73" d="M131.76338-115.4907H71.136C68.38483-115.4907 66.15462-117.72092 66.15462-120.47209V-135.41625C66.15462-138.16744 68.38483-140.39763 71.136-140.39763H131.76338C134.51456-140.39763 136.74477-138.16744 136.74477-135.41625V-120.47209C136.74477-117.72092 134.51456-115.4907 131.76338-115.4907ZM66.15462-140.39763"/>
<text fill="#212121" xml:space="preserve" transform="matrix(1 0 -0 1 141.47499 202.183)" font-size="8.9664" font-family="LMSans9"><tspan y="-49.186" x="80.551 86.441928 88.638698 93.24742 98.00858 102.769748 105.23999 107.71023 111.88857 115.03578 122.19993 127.83979 132.2692 136.87793 140.97557">CloudflarePages</tspan></text>
<path transform="matrix(1,0,0,-1,152.551,22.815999)" d="M34.34396-175.21074H-33.61798C-36.36916-175.21074-38.59937-177.44095-38.59937-180.19213V-196.38355C-38.59937-199.13472-36.36916-201.36493-33.61798-201.36493H34.34396C37.09514-201.36493 39.32535-199.13472 39.32535-196.38355V-180.19213C39.32535-177.44095 37.09514-175.21074 34.34396-175.21074ZM-38.59937-201.36493" fill="#ffffff"/>
<path transform="matrix(1,0,0,-1,152.551,22.815999)" stroke-width=".79701" stroke-linecap="butt" stroke-miterlimit="10" stroke-linejoin="miter" fill="none" stroke="#68b7f7" d="M34.34396-175.21074H-33.61798C-36.36916-175.21074-38.59937-177.44095-38.59937-180.19213V-196.38355C-38.59937-199.13472-36.36916-201.36493-33.61798-201.36493H34.34396C37.09514-201.36493 39.32535-199.13472 39.32535-196.38355V-180.19213C39.32535-177.44095 37.09514-175.21074 34.34396-175.21074ZM-38.59937-201.36493"/>
<text fill="#212121" xml:space="preserve" transform="matrix(1 0 -0 1 36.720994 267.814)" font-size="8.9664" font-family="LMSans9"><tspan y="-60.144" x="80.551 86.692989 88.889759 92.21629 98.73486 103.496028 111.332668 117.30429 121.40193 126.42312 131.03185 134.5646 136.76137 140.0879 144.44559 147.59279">GitHubRepository</tspan><tspan y="-49.186" x="93.283008 96.86957 104.921398 109.53012 114.29128 118.64895 121.79616 125.8938 130.906 135.51474">(Monorepo)</tspan></text>
<path transform="matrix(1,0,0,-1,152.551,22.815999)" stroke-width=".79701" stroke-linecap="butt" stroke-miterlimit="10" stroke-linejoin="miter" fill="none" stroke="#666666" d="M.36299-174.81224-92.14017-142.16403"/>
<path transform="matrix(-.94295,-.3328,-.3328,.94295,62.735269,165.8004)" d="M5.44046 0 1.28699 1.5706 2.66432 0 1.28699-1.5706Z" fill="#666666"/>
<path transform="matrix(-.94295,-.3328,-.3328,.94295,62.735269,165.8004)" stroke-width=".79701" stroke-linecap="butt" stroke-miterlimit="10" stroke-linejoin="miter" fill="none" stroke="#666666" d="M5.44046 0 1.28699 1.5706 2.66432 0 1.28699-1.5706Z"/>
<text fill="#4c4d4c" xml:space="preserve" transform="matrix(1 0 -0 1 -45.79001 239.847)" font-size="8.9664" font-family="LMSans9"><tspan y="-49.186" x="80.551 86.190868 90.539569 93.686779 97.01331 99.828769 104.43749 106.63426 108.83103 116.50626 120.60391 125.365077 129.79448 134.55564 139.16437 143.26201">Portfoliochanges</tspan></text>
<path transform="matrix(1,0,0,-1,152.551,22.815999)" stroke-width=".79701" stroke-linecap="butt" stroke-miterlimit="10" stroke-linejoin="miter" fill="none" stroke="#666666" d="M.36299-174.81224 97.55415-142.1069"/>
<path transform="matrix(.94774,-.3189,-.3189,-.94774,247.76892,165.70899)" d="M5.44046 0 1.28699 1.5706 2.66432 0 1.28699-1.5706Z" fill="#666666"/>
<path transform="matrix(.94774,-.3189,-.3189,-.94774,247.76892,165.70899)" stroke-width=".79701" stroke-linecap="butt" stroke-miterlimit="10" stroke-linejoin="miter" fill="none" stroke="#666666" d="M5.44046 0 1.28699 1.5706 2.66432 0 1.28699-1.5706Z"/>
<text fill="#4c4d4c" xml:space="preserve" transform="matrix(1 0 -0 1 126.62499 239.748)" font-size="8.9664" font-family="LMSans9"><tspan y="-49.186" x="80.551 86.70195 88.89872 93.50745 101.19165 105.28929 110.05045 114.47986 119.24102 123.84975 127.94739">Blogchanges</tspan></text>
<path transform="matrix(1,0,0,-1,152.551,22.815999)" stroke-width=".79701" stroke-linecap="butt" stroke-miterlimit="10" stroke-linejoin="miter" fill="none" stroke="#666666" d="M-96.016-115.09221V-76.68234"/>
<path transform="matrix(0,-1,-1,-0,56.534997,101.963428)" d="M5.44046 0 1.28699 1.5706 2.66432 0 1.28699-1.5706Z" fill="#666666"/>
<path transform="matrix(0,-1,-1,-0,56.534997,101.963428)" stroke-width=".79701" stroke-linecap="butt" stroke-miterlimit="10" stroke-linejoin="miter" fill="none" stroke="#666666" d="M5.44046 0 1.28699 1.5706 2.66432 0 1.28699-1.5706Z"/>
<text fill="#4c4d4c" xml:space="preserve" transform="matrix(1 0 -0 1 -20.297005 168.026)" font-size="8.9664" font-family="LMSans9"><tspan y="-49.186" x="80.551 87.213039 91.310688 96.071849 98.268619 102.62628 106.87636">Deploys</tspan></text>
<path transform="matrix(1,0,0,-1,152.551,22.815999)" stroke-width=".79701" stroke-linecap="butt" stroke-miterlimit="10" stroke-linejoin="miter" fill="none" stroke="#666666" d="M101.44969-115.09221V-76.68234"/>
<path transform="matrix(0,-1,-1,-0,254.00069,101.963428)" d="M5.44046 0 1.28699 1.5706 2.66432 0 1.28699-1.5706Z" fill="#666666"/>
<path transform="matrix(0,-1,-1,-0,254.00069,101.963428)" stroke-width=".79701" stroke-linecap="butt" stroke-miterlimit="10" stroke-linejoin="miter" fill="none" stroke="#666666" d="M5.44046 0 1.28699 1.5706 2.66432 0 1.28699-1.5706Z"/>
<text fill="#4c4d4c" xml:space="preserve" transform="matrix(1 0 -0 1 139.88098 168.026)" font-size="8.9664" font-family="LMSans9"><tspan y="-49.186" x="80.551 87.213039 91.310688 96.071849 98.268619 102.62628 106.87636">Deploys</tspan></text>
<path transform="matrix(1,0,0,-1,152.551,22.815999)" stroke-width=".79701" stroke-linecap="butt" stroke-miterlimit="10" stroke-linejoin="miter" fill="none" stroke="#666666" d="M-49.44159 0H-39.37854"/>
<path transform="matrix(1,0,0,-1,110.70737,22.815999)" d="M5.44046 0 1.28699 1.5706 2.66432 0 1.28699-1.5706Z" fill="#666666"/>
<path transform="matrix(1,0,0,-1,110.70737,22.815999)" stroke-width=".79701" stroke-linecap="butt" stroke-miterlimit="10" stroke-linejoin="miter" fill="none" stroke="#666666" d="M5.44046 0 1.28699 1.5706 2.66432 0 1.28699-1.5706Z"/>
<path transform="matrix(1,0,0,-1,152.551,22.815999)" stroke-width=".79701" stroke-linecap="butt" stroke-miterlimit="10" stroke-linejoin="miter" fill="none" stroke="#666666" d="M0-12.85196-92.1418-45.49551"/>
<path transform="matrix(-.94255,.33392,.33392,.94255,62.73266,67.48837)" d="M5.44046 0 1.28699 1.5706 2.66432 0 1.28699-1.5706Z" fill="#666666"/>
<path transform="matrix(-.94255,.33392,.33392,.94255,62.73266,67.48837)" stroke-width=".79701" stroke-linecap="butt" stroke-miterlimit="10" stroke-linejoin="miter" fill="none" stroke="#666666" d="M5.44046 0 1.28699 1.5706 2.66432 0 1.28699-1.5706Z"/>
<path transform="matrix(1,0,0,-1,152.551,22.815999)" stroke-width=".79701" stroke-linecap="butt" stroke-miterlimit="10" stroke-linejoin="miter" fill="none" stroke="#666666" d="M0-12.85196 97.55278-45.56143"/>
<path transform="matrix(.94807,.31789,.31789,-.94807,247.7667,67.59383)" d="M5.44046 0 1.28699 1.5706 2.66432 0 1.28699-1.5706Z" fill="#666666"/>
<path transform="matrix(.94807,.31789,.31789,-.94807,247.7667,67.59383)" stroke-width=".79701" stroke-linecap="butt" stroke-miterlimit="10" stroke-linejoin="miter" fill="none" stroke="#666666" d="M5.44046 0 1.28699 1.5706 2.66432 0 1.28699-1.5706Z"/>
</svg>
